# xmcd CD database file
#
# Track frame offsets:
#	150
#	21460
#	52867
#	73457
#	93185
#	108652
#	127015
#	146182
#	162935
#	192260
#	208175
#	219847
#	238130
#	256725
#
# Disc length: 3661 seconds
#
# Revision: 2
# Processed by: cddbd v1.5.1PL2 Copyright (c) Steve Scherf et al.
# Submitted via: CDex 1.50beta10
#
DISCID=d60e4b0e
DTITLE=Various Artist - Real Blues
DYEAR=1900
DGENRE=Blues
TTITLE0=Vaughan Brothers - Hard to be
TTITLE1=Allman Brothers - Get on with your life
TTITLE2=The Fabulous Thunderbirds - Powerful Stuff
TTITLE3=Tommy Emmanuel - Stevies Blues
TTITLE4=Chris Whitley - Poison Girl
TTITLE5=Black Sorrows - Never Let Me Go
TTITLE6=G. Love and the special sauce - Blues Music
TTITLE7=Popa Chubby - Palace of the King
TTITLE8=Kenny Lattimore - I Love you more than you'll ever know
TTITLE9=Aretha Franklin - What a difference a day makes
TTITLE10=Chicken Shack - Baby's got my crying
TTITLE11=Johnny Winter - Mad Blues
TTITLE12=Fleetwood Mac - Merry Go Round
TTITLE13=Troy Cassar-Daley - Working in Blues
EXTD=
EXTT0=
EXTT1=
EXTT2=
EXTT3=
EXTT4=
EXTT5=
EXTT6=
EXTT7=
EXTT8=
EXTT9=
EXTT10=
EXTT11=
EXTT12=
EXTT13=
PLAYORDER=
